<svg id="Layer_1" data-name="Layer 1" xmlns="http://www.w3.org/2000/svg" viewBox="0 0 224.48 198.82"><defs><style>.cls-1{fill:#aab8b3;}</style></defs><path class="cls-1" d="M224.48,20.53c-.16-.17-.1-.38-.1-.56a18.21,18.21,0,0,0-.86-4.91,20.91,20.91,0,0,0-7.7-10.94A19.93,19.93,0,0,0,204.19,0c-2.76,0-5.51,0-8.27.09-2.38.12-4.77,0-7.16.12s-4.61,0-6.92.11-4.77,0-7.16.12-4.85,0-7.27.12-5,0-7.57.11-5.2,0-7.8.12c-2.76.12-5.51,0-8.27.12-3,.12-5.94,0-8.92.12-3.38.12-6.77.05-10.15.1-5.78.1-11.55.05-17.33.06-1.23,0-2.45,0-3.69-.07a7,7,0,0,0-2,0,17.45,17.45,0,0,0-9.29,5.1c-3.27,3.6-6.74,7.09-10.11,10.63-1.95,2-3.87,4.08-5.8,6.14-3.09,3.27-6.2,6.54-9.26,9.9q-5.42,5.82-10.75,11.7c-1.68,1.84-3.33,3.69-5,5.56-2.64,3-5.28,6-7.84,9.11-1.46,1.7-2.84,3.48-4.13,5.32a5.35,5.35,0,0,0-.82,5.2,4.6,4.6,0,0,0,5,2.86,7.24,7.24,0,0,0,3.22-1.93c2.14-2,4.09-4.2,6-6.36,1.51-1.69,3-3.4,4.5-5.1L65,50.73c1.22-1.37,2.44-2.73,3.68-4.09a45.65,45.65,0,0,1,6.23-5.72,4.77,4.77,0,0,1,1-.55A12.07,12.07,0,0,1,82,39.56a15,15,0,0,1,7.54,2.76,8.42,8.42,0,0,1,3.85,6.92c0,9.61.09,19.23-.09,28.83-.09,4.52,0,9.05-.13,13.57-.1,3.27,0,6.54-.1,9.74-.12,2.86,0,5.72-.13,8.58-.1,2.28,0,4.58-.11,6.86-.11,2-.06,4-.11,6-.1,3.27-.14,6.62-.24,9.92-.08,2.64-.14,5.28-.24,7.91-.08,2.11-.15,4.22-.24,6.33-.11,2.95-.28,5.9-.48,8.84a34.22,34.22,0,0,1-1.4,8.7A51.24,51.24,0,0,1,85.82,175a18.28,18.28,0,0,1-10.24,8.32,96.77,96.77,0,0,1-14.14,3.42,67.29,67.29,0,0,1-8.5.89,64.59,64.59,0,0,1-12.5-.65,48.36,48.36,0,0,1-9.91-2.45,23.26,23.26,0,0,1-9-6.11,29.56,29.56,0,0,1-5.72-10.26,54.67,54.67,0,0,1-2.36-9.76,68.62,68.62,0,0,1-.82-8.46,69.38,69.38,0,0,1,.32-8c.24-2.7.41-5.42.4-8.13a31.22,31.22,0,0,0-.61-7.16,8.21,8.21,0,0,0-3-5.07,4.7,4.7,0,0,0-6.29.49,9.13,9.13,0,0,0-2.13,4.31A45.21,45.21,0,0,0,.09,136.82C0,140.63,0,144.46.15,148.27c.11,2.13,0,4.27.11,6.39a70.31,70.31,0,0,0,.82,7.81,56.1,56.1,0,0,0,3.73,13.45,36.21,36.21,0,0,0,8.94,12.92,29.67,29.67,0,0,0,10.32,6,52,52,0,0,0,6.4,1.46c2.87.57,5.72,1.27,8.6,1.71a66,66,0,0,0,8.18.76,95.43,95.43,0,0,0,12.42-.43c2.15-.21,4.33-.09,6.54-.21s4.45,0,6.68-.13,4.3,0,6.45-.11,4.15,0,6.22-.12c3.52-.1,7-.15,10.55-.23l9.27-.24c2.73-.09,5.47-.15,8.17-.24s5.24-.15,7.85-.24l6.33-.23c3-.12,6.09-.22,9.14-.36l5-.23c3.66-.19,7.35-.34,11-.51,1.53-.06,3-.15,4.57-.24l8.94-.57c1.31-.09,2.61-.16,3.91-.26l7.18-.56c1.64-.13,3.23-.25,4.84-.4,1.79-.16,3.58-.35,5.36-.54s3.27-.32,4.9-.53c2.27-.27,4.53-.6,6.79-.88a14.24,14.24,0,0,0,5.39-1.67,31.47,31.47,0,0,0,8.48-7.49,75.69,75.69,0,0,0,7-9.81,26.51,26.51,0,0,0,3.95-13.33c.08-3.84.06-7.67.08-11.5.11-15.91,0-31.81.13-47.71.09-10.57,0-21.15,0-31.72V66.69a1.6,1.6,0,0,0,0-.69V26.13a1.35,1.35,0,0,1,.06-.69Zm-11,115.28c-.05,2.13,0,4.26-.11,6.39-.15,3-.15,5.91-.24,8.86a34.43,34.43,0,0,1-3.36,14.62,26.89,26.89,0,0,1-6.88,8.72,12,12,0,0,1-3.88,1.89,69.9,69.9,0,0,1-10.79,2.54c-2.56.43-5.12.82-7.69,1.12-1.94.25-3.88.43-5.82.63-2.45.24-4.85.47-7.28.67-1.7.15-3.39.27-5.08.38l-9.41.57c-.86.05-1.73.06-2.58.11-2.52.13-5,.17-7.56.28-2.36.12-4.73.16-7.09.25-3.34.1-6.68.14-10,.24-2.84.08-5.67,0-8.51.1-6,.18-11.9.06-17.84.07-.9,0-1.79-.07-2.78-.12a36.52,36.52,0,0,0,2.28-4.39,49,49,0,0,0,3-10.2c.56-2.9.9-5.82,1.25-8.74.3-2.32.52-4.66.67-7,.18-3.16.35-6.32.46-9.49.1-2.69.15-5.38.24-8.08.09-2.26,0-4.51.11-6.75.18-4.48,0-9,.13-13.45.07-3.17.11-6.35,0-9.51-.15-8.62,0-17.23-.11-25.85-.15-11.2,0-22.4-.12-33.6-.11-9.22,0-18.43-.1-27.66a16.74,16.74,0,0,1,.2-3.39c.34-1.64.59-1.95,2.28-2.13a41.36,41.36,0,0,1,6.49,0c1,0,2,0,3,0h15.44c2.35,0,4.71,0,7-.11,2-.1,4,0,6-.1,3.57-.12,7.15-.16,10.72-.24s6.89-.15,10.32-.25c1.76,0,3.53,0,5.28-.11s3.68,0,5.51-.12c2.09-.12,4.19,0,6.28-.11,2.58-.13,5.16,0,7.75-.12,3.82-.14,7.66,0,11.49-.09A8,8,0,0,1,208,13.89a14.37,14.37,0,0,1,4.79,10.71c.05,3.71.05,7.43.13,11.15.08,3.11,0,6.23.11,9.34.13,3.36,0,6.73.12,10.1.12,3.54,0,7.08.11,10.63.13,4.08,0,8.22.12,12.33.14,5,0,10.1.11,15.15.19,10,.07,20,.12,30,0,4.13,0,8.33-.06,12.52Z"/></svg>