<svg id="Layer_1" data-name="Layer 1" xmlns="http://www.w3.org/2000/svg" viewBox="0 0 395.45 272.57"><defs><style>.cls-1{fill:#aab8b3;}.cls-2{fill:#dee3e1;}</style></defs><path class="cls-1" d="M281.3,132.29c-.2-.21-.12-.46-.12-.69a22.59,22.59,0,0,0-1.05-6,25.66,25.66,0,0,0-9.42-13.38,24.38,24.38,0,0,0-14.23-5c-3.37-.07-6.74-.06-10.11.1-2.92.15-5.84,0-8.76.15s-5.64,0-8.46.14-5.84,0-8.76.14-5.93,0-8.89.15-6.17,0-9.26.14-6.37,0-9.55.14c-3.37.15-6.74,0-10.11.15-3.64.15-7.27,0-10.91.14-4.14.15-8.28.07-12.41.13-7.07.12-14.13.06-21.2.07-1.5,0-3,0-4.51-.09a8.72,8.72,0,0,0-2.5,0,21.37,21.37,0,0,0-11.36,6.24c-4,4.41-8.25,8.67-12.37,13-2.38,2.49-4.73,5-7.09,7.52-3.78,4-7.58,8-11.33,12.1q-6.62,7.13-13.15,14.32-3.07,3.36-6.07,6.79c-3.24,3.68-6.47,7.37-9.59,11.15a81.4,81.4,0,0,0-5.06,6.5c-1.3,2-1.93,4.06-1,6.37s3.56,4.09,6.18,3.49a8.84,8.84,0,0,0,3.94-2.36c2.61-2.43,5-5.13,7.33-7.78,1.85-2.07,3.68-4.15,5.51-6.24q4.59-5.22,9.18-10.45,2.24-2.52,4.5-5a56.56,56.56,0,0,1,7.62-7,5.78,5.78,0,0,1,1.25-.67,14.75,14.75,0,0,1,7.52-1,18.51,18.51,0,0,1,9.23,3.38A10.33,10.33,0,0,1,121,167.4c0,11.76.1,23.52-.12,35.27-.11,5.53,0,11.07-.15,16.59-.12,4,0,8-.13,11.92-.14,3.5,0,7-.15,10.49-.13,2.79,0,5.6-.14,8.39-.13,2.44-.07,4.88-.13,7.32-.12,4-.18,8.09-.3,12.13-.1,3.23-.17,6.46-.29,9.68-.1,2.58-.19,5.16-.29,7.74-.14,3.61-.35,7.21-.59,10.81A42.29,42.29,0,0,1,117,308.38c-1.47,4.4-2.89,8.81-5.3,12.81a22.3,22.3,0,0,1-12.52,10.17,117.87,117.87,0,0,1-17.3,4.19,82.61,82.61,0,0,1-10.39,1.08,78.23,78.23,0,0,1-15.29-.79,58.89,58.89,0,0,1-12.13-3,28.35,28.35,0,0,1-11-7.47,36.22,36.22,0,0,1-7-12.55,67,67,0,0,1-2.89-11.94,83.32,83.32,0,0,1-1-10.34,84.69,84.69,0,0,1,.39-9.81c.29-3.31.5-6.63.49-9.95a37.78,37.78,0,0,0-.75-8.76,10.06,10.06,0,0,0-3.61-6.19,5.76,5.76,0,0,0-7.7.59,11.26,11.26,0,0,0-2.61,5.27,55.61,55.61,0,0,0-1.55,12.84c-.14,4.66-.17,9.34.07,14,.14,2.61,0,5.22.14,7.82a87,87,0,0,0,1,9.55,68.61,68.61,0,0,0,4.57,16.45,44.06,44.06,0,0,0,10.93,15.8,36.26,36.26,0,0,0,12.62,7.34A62.22,62.22,0,0,0,44,347.28c3.51.7,7,1.55,10.52,2.09a80.76,80.76,0,0,0,10,.93,116.75,116.75,0,0,0,15.19-.53c2.64-.26,5.3-.11,8-.26s5.45,0,8.18-.15,5.26,0,7.89-.14,5.07-.06,7.6-.14c4.31-.13,8.61-.19,12.91-.29,3.78-.1,7.55-.18,11.33-.29,3.34-.11,6.69-.18,10-.29s6.41-.19,9.6-.3l7.74-.28c3.73-.14,7.45-.27,11.18-.44l6.16-.28c4.48-.23,9-.41,13.45-.62,1.87-.08,3.73-.19,5.59-.3l10.93-.69c1.6-.11,3.2-.2,4.79-.32,2.93-.22,5.86-.46,8.78-.69,2-.16,3.95-.3,5.92-.49,2.19-.19,4.37-.43,6.55-.66,2-.21,4-.39,6-.64,2.77-.33,5.53-.74,8.3-1.08a17.42,17.42,0,0,0,6.59-2.05,38.47,38.47,0,0,0,10.38-9.15,94.42,94.42,0,0,0,8.51-12,32.45,32.45,0,0,0,4.83-16.31c.1-4.69.07-9.38.1-14.07.13-19.45,0-38.9.15-58.35.11-12.93,0-25.87,0-38.8,0-.65,0-1.29,0-1.94a2,2,0,0,0,.06-.85q0-24.39,0-48.76a1.64,1.64,0,0,1,.07-.85Zm-13.41,141c-.06,2.61,0,5.21-.13,7.82-.18,3.61-.18,7.22-.29,10.83a42.13,42.13,0,0,1-4.11,17.88,33,33,0,0,1-8.42,10.67,14.37,14.37,0,0,1-4.75,2.31A84.88,84.88,0,0,1,237,325.91c-3.13.53-6.27,1-9.41,1.37-2.37.31-4.75.53-7.12.77-3,.29-5.93.57-8.9.82q-3.12.27-6.22.46l-11.51.7c-1.05.06-2.11.08-3.15.14-3.08.15-6.17.2-9.25.34-2.89.14-5.78.19-8.67.3-4.08.13-8.17.17-12.26.3-3.47.1-6.93,0-10.4.12-7.28.22-14.56.07-21.83.09-1.09,0-2.18-.09-3.39-.15a46.58,46.58,0,0,0,2.79-5.37,60.23,60.23,0,0,0,3.68-12.48c.68-3.54,1.1-7.12,1.53-10.69q.54-4.26.81-8.56c.23-3.86.43-7.73.57-11.6.12-3.29.18-6.59.29-9.89.11-2.76,0-5.51.14-8.26.21-5.48,0-11,.15-16.44.09-3.88.14-7.77.07-11.64-.19-10.54,0-21.07-.14-31.61-.18-13.7,0-27.4-.15-41.1-.13-11.28,0-22.55-.12-33.83a20,20,0,0,1,.25-4.15c.41-2,.72-2.38,2.78-2.6a49,49,0,0,1,7.94,0c1.22.06,2.44,0,3.66,0,6.3,0,12.6,0,18.89,0,2.87-.05,5.75,0,8.61-.14,2.44-.12,4.88,0,7.32-.12,4.37-.15,8.75-.2,13.12-.3,4.21-.1,8.42-.18,12.62-.3,2.15-.06,4.31,0,6.46-.13s4.5,0,6.74-.15c2.55-.15,5.12,0,7.67-.14,3.16-.16,6.32,0,9.48-.14,4.68-.18,9.37,0,14.06-.12a9.87,9.87,0,0,1,7,2.76,17.56,17.56,0,0,1,5.85,13.1c.06,4.54.06,9.09.16,13.64.1,3.8,0,7.61.14,11.42.15,4.11,0,8.23.14,12.35.15,4.33,0,8.66.14,13,.16,5,0,10.06.15,15.08.17,6.18,0,12.36.13,18.54.23,12.23.09,24.47.14,36.71C268,263.07,268,268.2,267.89,273.33Z" transform="translate(-6.7 -77.78)"/><path class="cls-2" d="M401.93,162q0-19.25,0-38.5,0-22.12,0-44.26c0-.49-.2-1,.22-1.48V162Z" transform="translate(-6.7 -77.78)"/></svg>