<?xml version="1.0" encoding="utf-8"?>
<!-- Generator: Adobe Illustrator 24.3.0, SVG Export Plug-In . SVG Version: 6.00 Build 0)  -->
<svg version="1.1" id="Layer_1" xmlns="http://www.w3.org/2000/svg" xmlns:xlink="http://www.w3.org/1999/xlink" x="0px" y="0px"
	 viewBox="0 0 224.5 198.8" style="enable-background:new 0 0 224.5 198.8;" xml:space="preserve">
<style type="text/css">
	.st0{fill:#AAB8B3;}
</style>
<path class="st0" d="M224.5,20.5c-0.2-0.2-0.1-0.4-0.1-0.6c-0.1-1.7-0.4-3.3-0.9-4.9c-1.3-4.4-4-8.2-7.7-10.9
	c-3.3-2.6-7.4-4-11.6-4.1c-2.8-0.1-5.5,0-8.3,0.1c-2.4,0.1-4.8,0-7.2,0.1c-2.4,0.1-4.6,0-6.9,0.1s-4.8,0-7.2,0.1
	c-2.4,0.1-4.8,0-7.3,0.1s-5,0-7.6,0.1s-5.2,0-7.8,0.1c-2.8,0.1-5.5,0-8.3,0.1c-3,0.1-5.9,0-8.9,0.1c-3.4,0.1-6.8,0.1-10.1,0.1
	c-5.8,0.1-11.6,0-17.3,0.1c-1.2,0-2.5,0-3.7-0.1c-0.7-0.1-1.4-0.1-2,0c-3.5,0.7-6.8,2.5-9.3,5.1c-3.3,3.6-6.7,7.1-10.1,10.6
	c-1.9,2-3.9,4.1-5.8,6.1c-3.1,3.3-6.2,6.5-9.3,9.9c-3.6,3.9-7.2,7.8-10.8,11.7c-1.7,1.8-3.3,3.7-5,5.6c-2.6,3-5.3,6-7.8,9.1
	c-1.5,1.7-2.8,3.5-4.1,5.3c-1.1,1.6-1.6,3.3-0.8,5.2c0.8,1.9,2.9,3.3,5.1,2.9c1.2-0.3,2.3-1,3.2-1.9c2.1-2,4.1-4.2,6-6.4
	c1.5-1.7,3-3.4,4.5-5.1c2.5-2.8,5-5.7,7.5-8.5c1.2-1.4,2.4-2.7,3.7-4.1c1.9-2.1,4-4,6.2-5.7c0.3-0.2,0.7-0.4,1-0.5
	c1.9-0.8,4.1-1.1,6.1-0.8c2.7,0.2,5.3,1.2,7.5,2.8c2.4,1.5,3.8,4.1,3.9,6.9c0,9.6,0.1,19.2-0.1,28.8c-0.1,4.5,0,9.1-0.1,13.6
	c-0.1,3.3,0,6.5-0.1,9.7c-0.1,2.9,0,5.7-0.1,8.6c-0.1,2.3,0,4.6-0.1,6.9c-0.1,2-0.1,4-0.1,6c-0.1,3.3-0.1,6.6-0.2,9.9
	c-0.1,2.6-0.1,5.3-0.2,7.9c-0.1,2.1-0.2,4.2-0.2,6.3c-0.1,3-0.3,5.9-0.5,8.8c-0.1,2.9-0.6,5.9-1.4,8.7c-1.2,3.6-2.4,7.2-4.3,10.5
	c-2.3,4-5.9,6.9-10.2,8.3c-4.6,1.5-9.3,2.6-14.1,3.4c-2.8,0.5-5.6,0.8-8.5,0.9c-4.2,0.2-8.4,0-12.5-0.6c-3.4-0.5-6.7-1.3-9.9-2.5
	c-3.4-1.3-6.5-3.4-9-6.1c-2.6-3-4.5-6.5-5.7-10.3c-1.1-3.2-1.9-6.4-2.4-9.8c-0.4-2.8-0.7-5.6-0.8-8.5c0-2.7,0.1-5.4,0.3-8
	c0.2-2.7,0.4-5.4,0.4-8.1c0.1-2.4-0.1-4.8-0.6-7.2c-0.3-2-1.4-3.8-3-5.1c-1.9-1.5-4.6-1.3-6.3,0.5c-1.1,1.2-1.8,2.7-2.1,4.3
	c-0.8,3.4-1.3,7-1.3,10.5c-0.1,3.8-0.1,7.6,0.1,11.4c0.1,2.1,0,4.3,0.1,6.4c0.1,2.6,0.4,5.2,0.8,7.8c0.7,4.6,1.9,9.1,3.7,13.4
	c2,4.9,5,9.3,8.9,12.9c3,2.7,6.5,4.7,10.3,6c2.1,0.6,4.2,1.1,6.4,1.5c2.9,0.6,5.7,1.3,8.6,1.7c2.7,0.4,5.4,0.7,8.2,0.8
	c4.1,0.1,8.3,0,12.4-0.4c2.2-0.2,4.3-0.1,6.5-0.2c2.2-0.1,4.5,0,6.7-0.1c2.2-0.1,4.3,0,6.5-0.1c2.2-0.1,4.1,0,6.2-0.1
	c3.5-0.1,7-0.2,10.6-0.2c3.1-0.1,6.2-0.1,9.3-0.2c2.7-0.1,5.5-0.1,8.2-0.2s5.2-0.2,7.8-0.2l6.3-0.2c3-0.1,6.1-0.2,9.1-0.4l5-0.2
	c3.7-0.2,7.4-0.3,11-0.5c1.5-0.1,3-0.2,4.6-0.2l8.9-0.6c1.3-0.1,2.6-0.2,3.9-0.3c2.4-0.2,4.8-0.4,7.2-0.6c1.6-0.1,3.2-0.2,4.8-0.4
	c1.8-0.2,3.6-0.4,5.4-0.5c1.6-0.2,3.3-0.3,4.9-0.5c2.3-0.3,4.5-0.6,6.8-0.9c1.9-0.2,3.7-0.8,5.4-1.7c3.3-2,6.1-4.5,8.5-7.5
	c2.6-3.1,4.9-6.4,7-9.8c2.5-4,3.8-8.6,3.9-13.3c0.1-3.8,0.1-7.7,0.1-11.5c0.1-15.9,0-31.8,0.1-47.7c0.1-10.6,0-21.2,0-31.7
	c0-0.5,0-1.1,0-1.6c0.1-0.2,0.1-0.5,0-0.7c0-13.3,0-26.6,0-39.9c0-0.2,0-0.5,0.1-0.7L224.5,20.5z M213.5,135.8c0,2.1,0,4.3-0.1,6.4
	c-0.1,3-0.1,5.9-0.2,8.9c0,5.1-1.2,10.1-3.4,14.6c-1.7,3.4-4,6.3-6.9,8.7c-1.2,0.9-2.5,1.5-3.9,1.9c-3.5,1.1-7.1,2-10.8,2.5
	c-2.6,0.4-5.1,0.8-7.7,1.1c-1.9,0.3-3.9,0.4-5.8,0.6c-2.5,0.2-4.8,0.5-7.3,0.7c-1.7,0.1-3.4,0.3-5.1,0.4l-9.4,0.6
	c-0.9,0-1.7,0.1-2.6,0.1c-2.5,0.1-5,0.2-7.6,0.3c-2.4,0.1-4.7,0.2-7.1,0.2c-3.3,0.1-6.7,0.1-10,0.2c-2.8,0.1-5.7,0-8.5,0.1
	c-6,0.2-11.9,0.1-17.8,0.1c-0.9,0-1.8-0.1-2.8-0.1c0.9-1.4,1.6-2.9,2.3-4.4c1.4-3.3,2.4-6.7,3-10.2c0.6-2.9,0.9-5.8,1.3-8.7
	c0.3-2.3,0.5-4.7,0.7-7c0.2-3.2,0.4-6.3,0.5-9.5c0.1-2.7,0.1-5.4,0.2-8.1c0.1-2.3,0-4.5,0.1-6.8c0.2-4.5,0-9,0.1-13.4
	c0.1-3.2,0.1-6.4,0.1-9.5c-0.2-8.6,0-17.2-0.1-25.8c-0.1-11.2,0-22.4-0.1-33.6c-0.1-9.2,0-18.4-0.1-27.7c0-1.1,0-2.3,0.2-3.4
	c0.3-1.6,0.6-1.9,2.3-2.1c2.2-0.2,4.3-0.2,6.5,0c1,0,2,0,3,0c5.2,0,10.3,0,15.4,0c2.3,0,4.7,0,7-0.1c2-0.1,4,0,6-0.1
	c3.6-0.1,7.2-0.2,10.7-0.2c3.4-0.1,6.9-0.1,10.3-0.2c1.8,0,3.5,0,5.3-0.1c1.8-0.1,3.7,0,5.5-0.1c2.1-0.1,4.2,0,6.3-0.1
	c2.6-0.1,5.2,0,7.8-0.1c3.8-0.1,7.7,0,11.5-0.1c2.1,0,4.2,0.8,5.7,2.3c3,2.7,4.8,6.6,4.8,10.7c0,3.7,0,7.4,0.1,11.2
	c0.1,3.1,0,6.2,0.1,9.3c0.1,3.4,0,6.7,0.1,10.1c0.1,3.5,0,7.1,0.1,10.6c0.1,4.1,0,8.2,0.1,12.3c0.1,5.1,0,10.1,0.1,15.2
	c0.2,10,0.1,20,0.1,30C213.6,127.5,213.6,131.6,213.5,135.8L213.5,135.8z"/>
</svg>
